<svg xmlns="http://www.w3.org/2000/svg" viewBox="0 0 512 512">
  <defs>
    <radialGradient id="bg" cx="50%" cy="45%" r="75%">
      <stop offset="0%" stop-color="#221510"/>
      <stop offset="100%" stop-color="#100c0a"/>
    </radialGradient>
  </defs>
  <rect width="512" height="512" rx="118" fill="url(#bg)"/>
  <!-- top bun -->
  <path d="M108 218c0-62 66-104 148-104s148 42 148 104c0 8-6 14-14 14H122c-8 0-14-6-14-14Z" fill="#f5ead8"/>
  <g fill="#161210">
    <ellipse cx="216" cy="158" rx="10" ry="6" transform="rotate(-16 216 158)"/>
    <ellipse cx="258" cy="148" rx="10" ry="6" transform="rotate(4 258 148)"/>
    <ellipse cx="300" cy="160" rx="10" ry="6" transform="rotate(18 300 160)"/>
  </g>
  <!-- steak M filling: block whose bottom edge forms an M (two upward peaks framing a central V) -->
  <path d="M126 244 H386 V356 H322 L300 278 L256 340 L212 278 L190 356 H126 Z" fill="#e05252" stroke="#f97316" stroke-width="7" stroke-linejoin="round"/>
  <!-- bottom bun -->
  <path d="M122 372h268c8 0 14 6 14 14 0 30-26 50-58 50H166c-32 0-58-20-58-50 0-8 6-14 14-14Z" fill="#f5ead8"/>
</svg>
