<svg xmlns="http://www.w3.org/2000/svg" viewBox="0 0 512 512">
  <defs>
    <radialGradient id="bg" cx="50%" cy="42%" r="75%">
      <stop offset="0%" stop-color="#1a1b1c"/>
      <stop offset="100%" stop-color="#0b0c0d"/>
    </radialGradient>
    <filter id="glow" x="-30%" y="-30%" width="160%" height="160%">
      <feGaussianBlur stdDeviation="10" result="b"/>
      <feMerge>
        <feMergeNode in="b"/>
        <feMergeNode in="SourceGraphic"/>
      </feMerge>
    </filter>
  </defs>
  <rect width="512" height="512" rx="118" fill="url(#bg)"/>
  <g filter="url(#glow)" fill="#e8502a">
    <path d="M136 236c0-64 54-112 120-112s120 48 120 112a10 10 0 0 1-10 10H146a10 10 0 0 1-10-10Z"/>
    <rect x="136" y="300" width="240" height="36" rx="18"/>
    <path d="M140 356h232a8 8 0 0 1 8 8c0 26-22 44-50 44H182c-28 0-50-18-50-44a8 8 0 0 1 8-8Z"/>
  </g>
  <g fill="#141516">
    <ellipse cx="210" cy="182" rx="12" ry="7" transform="rotate(-18 210 182)"/>
    <ellipse cx="258" cy="168" rx="12" ry="7" transform="rotate(6 258 168)"/>
    <ellipse cx="305" cy="186" rx="12" ry="7" transform="rotate(20 305 186)"/>
  </g>
  <path d="M140 272q12-12 24 0t24 0 24 0 24 0 24 0 24 0 24 0 24 0 24 0" fill="none" stroke="#e8502a" stroke-width="14" stroke-linecap="round" filter="url(#glow)"/>
</svg>